<svg preserveAspectRatio="none" width="100%" height="100%" overflow="visible" style="display: block;" viewBox="0 0 23.8011 23.4847" fill="none" xmlns="http://www.w3.org/2000/svg">
<g id="Group">
<path id="Vector" d="M1.26013 6.53558C2.0136 5.02152 3.07818 3.74183 4.41985 2.67777C6.23791 1.22933 8.32332 0.357456 10.6615 0.0902688C13.408 -0.223794 15.9893 0.277769 18.3761 1.65589C18.9692 1.99808 19.5233 2.38714 20.0532 2.80902C20.1844 2.91214 20.1699 2.97308 20.058 3.07621C18.974 4.11683 17.89 5.15746 16.8157 6.20746C16.6893 6.32933 16.6212 6.31996 16.4851 6.22152C13.3351 3.88246 8.74138 4.51527 6.39346 7.60902C5.98027 8.15277 5.64485 8.73871 5.41152 9.37621C5.39207 9.43246 5.35318 9.48402 5.32402 9.54027C4.69693 9.08089 4.06499 8.62152 3.44277 8.15746C2.7136 7.61839 1.98443 7.07933 1.26013 6.53558Z" fill="var(--fill-0, #E94335)"/>
<path id="Vector_2" d="M5.32402 13.9371C5.53305 14.3825 5.70805 14.8465 5.97055 15.2637C7.07402 17.0075 8.64902 18.1278 10.7247 18.5262C12.5962 18.8871 14.3949 18.6434 16.0719 17.7387C16.1303 17.7106 16.1886 17.6825 16.2421 17.6543C16.2712 17.6825 16.2955 17.7153 16.3247 17.7387C17.5789 18.6762 18.8379 19.6137 20.0921 20.5512C19.4893 21.1278 18.8039 21.5918 18.0747 21.995C15.9601 23.1575 13.6705 23.6262 11.2594 23.4481C8.25527 23.2231 5.6643 22.0793 3.52541 20.0168C2.58721 19.1121 1.8143 18.0903 1.25527 16.9231C1.77541 16.5387 2.29555 16.159 2.81568 15.7746C3.6518 15.1606 4.48791 14.5512 5.32402 13.9371Z" fill="var(--fill-0, #34A853)"/>
<path id="Vector_3" d="M20.0969 20.5512C18.8428 19.6137 17.5837 18.6762 16.3296 17.7387C16.3004 17.7153 16.2712 17.6825 16.2469 17.6543C16.6796 17.3309 17.1219 17.0168 17.4768 16.6043C18.0699 15.92 18.4636 15.1465 18.6678 14.2793C18.6921 14.1715 18.6726 14.134 18.5608 14.1387C18.5025 14.1434 18.449 14.1387 18.3907 14.1387C16.4074 14.1387 14.4192 14.134 12.4358 14.1434C12.2171 14.1434 12.1685 14.0871 12.1733 13.8856C12.183 12.5262 12.183 11.1668 12.1733 9.80746C12.1733 9.63402 12.2219 9.58714 12.4018 9.58714C16.0379 9.59183 19.674 9.59183 23.315 9.58714C23.4705 9.58714 23.5337 9.62464 23.5726 9.78402C23.8692 11.0731 23.8497 12.3668 23.6699 13.67C23.524 14.7106 23.2615 15.7184 22.858 16.6934C22.2601 18.1325 21.3803 19.3887 20.2233 20.4668C20.1796 20.4996 20.1358 20.5231 20.0969 20.5512Z" fill="var(--fill-0, #4285F3)"/>
<path id="Vector_4" d="M5.32402 13.9371C4.48791 14.5512 3.6518 15.1606 2.81568 15.7746C2.29555 16.1543 1.77541 16.5387 1.25527 16.9231C0.851796 16.2012 0.589296 15.4371 0.375407 14.6496C-0.0329262 13.1262 -0.0961207 11.5793 0.12749 10.0278C0.30249 8.80902 0.667074 7.63714 1.25527 6.54027C1.98443 7.07933 2.70874 7.62308 3.43791 8.16214C4.06499 8.62621 4.69207 9.08558 5.31916 9.54496C5.21221 10.0465 5.06152 10.5387 5.01291 11.0543C4.92541 11.9918 5.01777 12.9059 5.29485 13.8059C5.3143 13.8434 5.31916 13.8903 5.32402 13.9371Z" fill="var(--fill-0, #FABB06)"/>
</g>
</svg>
